<svg width="300" height="300" viewBox="0 0 800 800" xmlns="http://www.w3.org/2000/svg" fill="none">
    <g>
        <path
            d="m660.76943,246.27923l-178.29443,-146.78873l-0.99231,-0.81806c-8.90031,-7.32777 -17.27577,-14.22462 -24.83465,-19.54819c-8.26533,-5.82069 -17.97753,-11.55498 -30.05861,-14.93271c-17.36363,-4.8545 -35.81564,-4.8545 -53.17927,0c-12.08109,3.37773 -21.79329,9.11201 -30.05861,14.93271c-7.56005,5.32357 -15.93551,12.22042 -24.83699,19.55043l-0.98996,0.81469l-178.29443,146.78985l-1.5324,1.26132c-25.35482,20.87347 -46.485,38.26934 -61.42469,52.8856c-13.87708,13.57713 -30.67497,32.22085 -33.97583,56.15896c-4.10994,29.80482 7.43305,59.62871 30.83254,79.66617c18.7941,16.09303 44.21921,19.74345 63.98336,21.3762c21.27546,1.7562 49.13858,1.7562 82.57127,1.75507l2.02093,0l356.58887,0l2.02093,0c33.4327,0.00112 61.29581,0.00112 82.57127,-1.75507c19.76415,-1.63276 45.18926,-5.28317 63.98336,-21.3762c23.39949,-20.03746 34.94283,-49.86135 30.83301,-79.66617c-3.30145,-23.93812 -20.09922,-42.58184 -33.9763,-56.15896c-14.93851,-14.61513 -36.0687,-32.011 -61.42234,-52.88335l-1.53474,-1.26356z"
            stroke="#0A0B0C" stroke-width="60" stroke-linejoin="round" id="svg_2" />
        <path
            d="m668.52167,458.92078c-2.12052,35.67152 -7.54248,75.73745 -16.7884,113.88784c-12.52511,51.68375 -31.01812,95.38664 -54.01576,121.04841c-45.29119,50.53914 -114.8289,55.59227 -197.61222,55.59227c-82.78332,0 -152.32104,-5.05313 -197.61222,-55.59227c-22.99647,-25.66177 -41.49066,-69.36465 -54.01576,-121.04841c-9.24592,-38.15039 -14.66671,-78.21632 -16.7884,-113.88784l10.21363,0c1.40118,29.09224 4.67217,62.59909 10.72442,95.05896c8.24073,44.18991 22.79965,93.4105 50.44252,124.25669c27.52805,30.71826 63.18788,45.47367 97.89054,52.67238c34.09111,7.07191 69.75328,7.31879 99.14528,7.31879c29.392,0 65.05417,-0.24688 99.14528,-7.31879c34.70266,-7.19872 70.36366,-21.95412 97.89171,-52.67238c27.64287,-30.84619 42.20179,-80.06678 50.44135,-124.25669c6.05226,-32.45987 9.32324,-65.96672 10.72442,-95.05896l10.21363,0z"
            stroke="#0A0B0C" stroke-width="50" id="svg_3" />
    </g>
</svg>
